PathFileType	4	(X/Y/Z)	RBDS024\RBDS024runT45.trc
DataRate	CameraRate	NumFrames	NumMarkers	Units	OrigDataRate	OrigDataStartFrame	OrigNumFrames
150.000000	150.000000	6	32	mm	150.000000	2250	4500
Frame#	Time	L.ASIS			L.Heel.Bottom			L.Heel.Lateral			L.Heel.Top			L.Iliac.Crest			L.MT5			L.PSIS			L.Shank.Bottom.Lateral			L.Shank.Bottom.Medial			L.Shank.Top.Lateral			L.Shank.Top.Medial			L.Thigh.Bottom.Lateral			L.Thigh.Bottom.Medial			L.Thigh.Top.Lateral			L.Thigh.Top.Medial			R.ASIS			R.ASY			R.Heel.Bottom			R.Heel.Lateral			R.Heel.Top			R.Iliac.Crest			R.MT1			R.MT5			R.PSIS			R.Shank.Bottom.Lateral			R.Shank.Bottom.Medial			R.Shank.Top.Lateral			R.Shank.Top.Medial			R.Thigh.Bottom.Lateral			R.Thigh.Bottom.Medial			R.Thigh.Top.Lateral			R.Thigh.Top.Medial			
		X1	Y1	Z1	X2	Y2	Z2	X3	Y3	Z3	X4	Y4	Z4	X5	Y5	Z5	X6	Y6	Z6	X7	Y7	Z7	X8	Y8	Z8	X9	Y9	Z9	X10	Y10	Z10	X11	Y11	Z11	X12	Y12	Z12	X13	Y13	Z13	X14	Y14	Z14	X15	Y15	Z15	X16	Y16	Z16	X17	Y17	Z17	X18	Y18	Z18	X19	Y19	Z19	X20	Y20	Z20	X21	Y21	Z21	X22	Y22	Z22	X23	Y23	Z23	X24	Y24	Z24	X25	Y25	Z25	X26	Y26	Z26	X27	Y27	Z27	X28	Y28	Z28	X29	Y29	Z29	X30	Y30	Z30	X31	Y31	Z31	X32	Y32	Z32	

2251	15	2107.398843270177	977.4674924756756	906.7284057776158	1915.294491807509	286.5691339654718	978.4736867222456	1942.81177022915	287.2637766150258	933.7891870832958	1951.327516136615	313.6261689226966	977.965464375406	2004.053471129355	1045.555896038634	850.9463835891748	2053.238168649634	168.6145669234303	888.7603320354755	1925.373577334879	1010.02012234902	963.9720291536554	2065.875336201773	343.0381984945329	911.8065420804363	2033.323464071189	373.9111300047816	936.3225117402667	2113.42221265254	405.4109725173536	890.3733416330969	2083.199271931089	439.8170440991618	916.8906851413002	2226.753113947392	674.9100659323854	844.4046412725079	2186.399369129551	632.7602094719418	885.5558209316916	2139.540311345231	740.4457965928246	828.8503512629785	2100.071738756262	700.1562051873308	867.4858875962094	2101.657141453184	956.6636254454148	1137.575861882679	1652.39737988676	92.44897935129211	1058.470316000612	1484.22798715817	172.0922409931941	1024.927151379199	1509.769593794637	160.9605100480633	1075.176226685835	1515.25377235514	199.9178260013606	1036.15557144312	2043.05851322749	1031.897228367935	1183.010341831613	1656.767665069341	49.30145134353499	998.2525406986815	1612.252017956563	48.64234061410571	1108.581335010348	1932.11341674181	1008.090730816152	1068.865852642723	1607.173979505997	250.2616640705567	1105.293873562239	1587.04715654464	277.3138791531239	1061.536275559324	1646.369940916966	318.5910019131978	1126.949550255606	1626.381427383788	343.7116810029399	1083.843032507918	1875.942223897636	625.2765254987424	1174.149069229641	1825.028741203133	649.0148497612502	1127.880314880606	1905.759707721642	729.4009930957974	1189.848694605235	1858.170939310022	750.892905628333	1144.587305936136	
2252	15.00666666666667	2108.480673417613	982.4941311477347	906.9999763609428	1940.617361939387	263.9916293927541	978.6761636146437	1967.958188302282	266.5303832961494	933.9668283676897	1974.569426412756	293.7632815033187	978.0855184011369	2005.339851638077	1051.795198100956	851.9352390821073	2087.000226091324	156.0239344642346	889.2167353930139	1927.450211242375	1014.940002264875	965.4686089384344	2086.341517975884	331.7957506607339	912.0828038786107	2051.735824436922	360.0706698372785	936.9634205458611	2128.992303370236	397.6555935483845	890.7829675710643	2096.393492883074	429.6600497719224	917.6492610258853	2229.282088035709	681.380556901021	845.9228100804409	2188.521973170279	638.521499661032	885.856429852878	2141.885786177156	746.5131634658014	829.7172243473614	2102.123998138663	705.5417576427297	867.2257107941256	2105.341431962718	957.919903057655	1136.350160429896	1631.700575109118	96.25475096326706	1061.009118215825	1471.171958932569	190.1252346988545	1026.292619416477	1494.888706643093	176.2046492649287	1076.668346490346	1504.199070304549	214.9612927759982	1038.508238057863	2051.646227224877	1033.556177926599	1182.67259520889	1632.987738249431	53.12811612267291	1000.047319544718	1586.903953547109	54.41583822818224	1109.104744811094	1935.628648824127	1012.582571068272	1070.614539804164	1592.930166555999	261.2082770700357	1107.218605102385	1573.731812820176	287.2885625040562	1062.433857838624	1632.304597590125	329.8286845883653	1127.882627963739	1613.033375902726	354.0574954630254	1083.92543607198	1868.647761824622	634.1755387745836	1173.363712750047	1819.368487688696	659.7526490525216	1126.159756079889	1902.181759502025	737.1943996490793	1189.25246781051	1856.384237405655	760.4475865250624	1142.79533604207	
2253	15.01333333333333	2109.352425115462	987.0589790307196	907.2048073178343	1967.329110489826	241.850792017798	979.1311477653527	1994.289328496947	246.1758492504211	934.3558818877175	1998.992970621909	274.1483198157489	978.3886548013712	2006.668801587764	1057.763009132903	852.8305816583103	2121.219437969343	144.4132036286651	889.7748921123097	1929.44127276123	1019.778110573483	966.8258325527719	2107.120418958704	320.639373246842	912.3820818630697	2070.753037392229	346.1748958527893	937.7388333770695	2144.56439880048	389.6051534739464	891.1624507396317	2109.861867766902	419.05151011035	918.4845918077331	2230.778057220861	686.5779290686677	847.5494015539475	2189.379648317738	643.1060210649501	886.1050262338257	2143.448076133808	751.6559328637968	830.6994008620794	2103.214873882343	710.1224188151972	866.9991590516742	2108.686236415525	959.1494062192675	1135.092404587456	1611.746462760199	101.1826657418991	1063.58461688329	1459.738137642723	208.6157062094289	1027.564702492401	1481.378294904068	192.0579640477664	1078.086599434457	1494.582787897081	230.3289965897904	1040.758417606629	2059.857190822366	1034.936102620284	1182.181576703588	1610.157578639521	58.23880830233472	1001.97261221498	1562.507861266234	61.58772887477387	1109.670425465055	1938.953141348792	1017.209850485329	1072.142099618657	1580.081238905713	272.2295397360755	1109.17789753864	1561.766459410535	297.4657241344373	1063.49057237564	1619.882790724544	340.9481872862059	1128.903368408859	1601.292516613191	364.4171640311094	1084.209592778802	1862.331945834757	642.4882741013803	1172.624424715219	1814.606543798445	669.5236749833773	1124.483521341909	1898.998650083288	744.5038549400999	1188.531116314333	1854.971110342522	769.1473072575841	1140.828605992194	
2254	15.02	2109.983497947486	991.0929541849982	907.364785323942	1995.302004894325	220.3175784269908	979.8782568022986	2021.67245649313	226.3679712685008	934.9885193956565	2024.467642844116	254.9322073513888	978.9081929292029	2007.962005311699	1063.338695995091	853.6311735847628	2155.703543725136	133.9644405108766	890.4187626045879	1931.294426702617	1024.480621833873	968.0293250913403	2128.075512794704	309.652555369126	912.7069709485795	2090.2506337421	332.336991027592	938.6388902900652	2160.043621999787	381.2990973533124	891.5035620064845	2123.525948569246	408.0590247132461	919.3739319281865	2231.207728975959	690.417078667588	849.1948954506449	2188.972674905525	646.4722469399951	886.2947543381063	2144.196752039021	755.7907322167274	831.7344550429174	2103.336513682994	713.8631189732346	866.8242581665977	2111.619612105165	960.4316480893716	1133.860060569446	1592.520302215466	107.4168927379536	1066.052754635577	1449.596553373057	227.4176502598681	1028.776311203546	1469.035287071345	208.4445500556693	1079.438653315296	1486.040159555769	245.9672473264955	1042.860405149019	2067.451817913206	1036.213620812313	1181.535036164022	1588.24314029447	64.78782279495626	1003.907675946271	1539.201537547447	70.27775466150264	1110.253133587435	1942.020448124457	1021.920293280473	1073.441368056733	1568.485318994473	283.340621976345	1111.078860872792	1550.990147281828	307.9354432364502	1064.661675572744	1609.034662874359	351.8910063042283	1129.958302649985	1591.080835324653	374.8024085854548	1084.679616762134	1857.100939849832	649.964760537665	1171.957552856453	1810.750982259395	678.0930479682848	1122.958831205349	1896.289184663851	751.1235781805045	1187.753374970466	1853.87717099869	776.8021309670931	1138.875276371786	
2255	15.02666666666667	2110.360598290115	994.5526350790577	907.5019424047883	2024.351154230842	199.572813818444	980.9399827520925	2049.927916963467	207.2801600840534	935.8847905785433	2050.806503031292	236.2763785262942	979.6649605964785	2009.141561954228	1068.412492414539	854.3394442009211	2190.225252328484	124.8611512511074	891.1467387682152	1932.964770589788	1028.987798647405	969.0664495481547	2149.042220758853	298.9304790775288	913.0626223664254	2110.063003267501	318.680730801792	939.6480119626477	2175.3130359838	372.793799067414	891.8020092636839	2137.273914718462	396.766141144741	920.2901638211422	2230.543705405752	692.8513686219029	850.7460727528637	2187.325080414179	648.6286205450957	886.4248863323165	2144.106915325528	758.8659884251455	832.7424552107301	2102.498869524738	716.7674185150107	866.7203007574969	2114.096988547662	961.8300543182266	1132.712837420378	1574.031333546925	115.0921198766447	1068.266122647929	1440.408009146372	246.4123934731052	1029.973600563239	1457.662366840693	225.2948916835087	1080.740612560627	1478.215147251935	261.8502046609829	1044.779226175793	2074.217486360774	1037.578216133229	1180.740002021743	1567.215174391616	72.88334363198159	1005.7177836338	1517.128511050972	80.54658064001514	1110.83007152396	1944.774366965185	1026.640409774802	1074.511563073283	1558.001722595493	294.5882859658246	1112.832294360579	1541.252593767738	318.8071798618917	1065.893671511792	1599.669560979246	362.6419041981761	1130.991690180205	1582.306853764469	385.2556630441359	1085.307152204643	1853.056518714081	656.4013743949299	1171.390372855663	1807.819074233548	685.2929586996806	1121.687364477208	1894.153958735885	756.8770874908549	1187.00509258067	1853.079450203204	783.2750794296255	1137.137480858768	
2256	15.03333333333333	2110.487265877926	997.4204585532018	907.6338276308436	2054.228419331185	179.805267210688	982.3172622417908	2078.825856996323	189.0881437746766	937.048641917072	2077.763709761199	218.35094972319	980.6612194963291	2010.135759991747	1072.8900010922	854.9595761718019	2224.520353356418	117.2712314426459	891.9719917619445	1934.416156538703	1033.231302482431	969.9283468976903	2169.830380408172	288.5789415164797	913.4545089641722	2129.986146899928	305.3395841851126	940.7434888434436	2190.236052341704	364.1647668809177	892.056507629515	2150.963143281738	385.274089670716	921.2023730944559	2228.768617235938	693.8744677288105	852.0793071435603	2184.485854664511	649.6282765862834	886.5032869823017	2143.159881117252	760.8612164449086	833.6360680590972	2100.729308909204	718.8690766054348	866.7077586697717	2116.104865868674	963.3850997875564	1131.70484726844	1556.314234003896	124.2787671284717	1070.090565105046	1431.871231298947	265.5139335684246	1031.202252000322	1447.094828353252	242.5471460555751	1082.007766627567	1470.806428486884	277.9751484334605	1046.489243487805	2079.984004460876	1039.205581576918	1179.813315507503	1547.063128131695	82.5766610308787	1007.269260295422	1496.4258416863	92.38984000383836	1111.379392939617	1947.170559913949	1031.275268452109	1075.357704296812	1548.510304495197	306.0358319747267	1114.360806596884	1532.435297512128	330.1879304850459	1067.129204978353	1591.688934264571	373.219813791667	1131.950312449096	1574.879173024269	395.8347455947701	1086.053967423168	1850.284182056908	661.6506041958378	1170.949727715514	1805.831179572898	691.0267808369679	1120.758214687715	1892.702964709858	761.6268482521688	1186.379489759837	1852.586719663146	788.4847138436071	1135.809446775995	
